<svg width="32" height="32" viewBox="0 0 32 32" fill="none" xmlns="http://www.w3.org/2000/svg">
<path d="M15.1052 0.904388C6.82167 0.904388 0.0934832 7.63251 0.0934832 15.916C0.0934832 17.7395 0.419535 19.4876 1.01646 21.1051C3.1311 26.835 8.64515 30.9258 15.1052 30.9258C23.3887 30.9258 30.1169 24.1995 30.1169 15.916C30.1169 7.63251 23.3889 0.904388 15.1052 0.904388ZM15.1052 2.07226C22.7575 2.07226 28.949 8.26376 28.949 15.916C28.949 17.0385 28.8157 18.1293 28.5642 19.1738L25.7575 18.631L24.4744 14.1563L24.3884 13.8536L24.0857 13.7598L20.4567 12.6388L16.2751 4.59964L15.9782 4.02739L15.4373 4.37889L9.74392 8.08201L9.56042 8.2012L9.4998 8.41208L6.5038 18.8731L2.11505 20.7129C1.5638 19.2185 1.26155 17.6033 1.26155 15.916C1.26155 8.26376 7.45298 2.07226 15.1052 2.07226ZM15.156 5.95508L11.8729 12.4923L12.8865 20.8946L18.5193 17.0235V20.9591L17.0466 21.3498L18.3494 29.3769C17.309 29.6261 16.2225 29.7578 15.1052 29.7578C9.55436 29.7578 4.77205 26.5005 2.56417 21.791L7.21455 19.8399L7.47242 19.7324L7.55055 19.4629L10.5622 8.94539L15.156 5.95508Z" fill="#F8F2ED"/>
</svg>
