<svg width="32" height="32" viewBox="0 0 32 32" fill="none" xmlns="http://www.w3.org/2000/svg">
<g clip-path="url(#clip0_290_8)">
<path d="M15.2949 0.00020991C9.05556 -0.00237876 3.05153 3.09752 -0.282959 9.30542C1.20322 12.0224 2.87088 13.7887 3.52126 16.3018V19.7978C3.18809 20.507 2.67736 21.0014 2.67736 21.7852C2.67736 22.4212 3.49104 23.0511 4.1487 23.0511C4.79223 23.0511 5.65971 22.3741 5.65957 21.7043C5.65957 20.909 5.14814 20.4582 4.82875 19.8132V17.5546C5.94831 15.3046 10.5208 16.8967 12.234 20.7467V26.3852C11.7888 27.1183 11.2808 27.5713 11.2808 28.4055C11.2808 29.6568 12.1037 30.1196 12.9554 30.1196C13.7885 30.1196 14.4662 29.7236 14.4662 28.4055C14.4662 27.7549 13.9455 27.2417 13.5413 26.2322V20.7643C14.6382 18.2125 17.3837 19.3555 18.5547 22.9506V28.1869C18.1762 28.9214 17.7349 29.5481 17.7349 30.4476C17.7349 31.3521 18.4377 32 19.2062 32C19.9579 32 20.7586 31.3194 20.7586 30.3668C20.7586 29.3559 20.262 28.7286 19.8621 27.9485V22.0322H19.8467C20.92 17.4162 23.5054 14.9358 24.6568 18.3525V22.535C24.3449 23.1617 23.9879 23.7506 23.9879 24.6056C23.9879 25.5811 24.6563 26.2804 25.2952 26.2804C25.9486 26.2804 26.5612 25.6127 26.5612 24.6864C26.5612 23.9287 26.2571 23.3562 25.9645 22.7582V17.8671C27.3629 12.9806 30.6134 11.7575 32.2829 9.30521C28.0093 3.10759 21.5342 0.00258867 15.2949 0V0.00020991ZM15.3255 1.53942C21.0444 1.49702 26.9451 4.18238 30.4466 9.64867C19.965 17.2333 10.8396 17.2468 1.5536 9.30318C4.41051 4.18532 9.78276 1.58056 15.3256 1.53928L15.3255 1.53942ZM15.6536 2.66094C12.5072 2.66094 9.95809 5.21239 9.95809 8.35867C9.95809 11.505 12.5072 14.0542 15.6536 14.0542C18.7999 14.0542 21.3512 11.5051 21.3512 8.35867C21.3512 5.21239 18.7998 2.66101 15.6535 2.66101L15.6536 2.66094ZM15.6164 6.09359C16.7449 6.09359 17.6585 7.00731 17.6585 8.13583C17.6585 9.26435 16.7449 10.18 15.6164 10.18C14.4878 10.18 13.5722 9.26421 13.5722 8.13569C13.5722 7.00717 14.4878 6.09366 15.6164 6.09366L15.6164 6.09359Z" fill="#F8F2ED"/>
</g>
<defs>
<clipPath id="clip0_290_8">
<rect width="32" height="32" fill="white"/>
</clipPath>
</defs>
</svg>
