<svg width="32" height="32" viewBox="0 0 32 32" fill="none" xmlns="http://www.w3.org/2000/svg">
<g clip-path="url(#clip0_288_2)">
<path d="M15.9062 6.75947e-05C11.0908 6.75947e-05 7.30015 3.18553 7.30015 6.91475C7.30015 8.65086 8.11227 10.2445 9.47702 11.4767L9.67484 11.6551L9.81957 15.4174L13.6995 13.3191L15.9913 16.9939L18.2435 13.3591L21.9837 15.4065L22.0918 11.6973L22.2964 11.516C23.6941 10.2779 24.5123 8.67771 24.5123 6.91468C24.5123 3.18546 20.7217 0 15.9063 0L15.9062 6.75947e-05ZM10.5119 6.02877C12.0921 6.00882 14.4605 7.28145 14.4605 7.28145C14.4605 8.75393 13.267 9.94763 11.7944 9.94763C10.3217 9.94763 9.12804 8.75393 9.12804 7.28138H9.12824C9.15638 6.35631 9.74017 6.03831 10.512 6.02864L10.5119 6.02877ZM21.3002 6.02877C22.0719 6.03838 22.6558 6.35638 22.684 7.28145C22.684 8.75393 21.4903 9.94777 20.0177 9.94777C18.5452 9.94777 17.3515 8.75406 17.3515 7.28152C17.3515 7.28152 19.72 6.00889 21.3002 6.02877ZM15.9062 9.28308L17.2814 12.3548H14.5308L15.9062 9.28315V9.28308ZM13.2555 14.9959L11.7541 15.8081C12.2156 18.1819 11.9415 20.3281 10.5397 22.4991C9.33202 24.3687 6.25524 25.8135 4.0687 24.4386C1.36234 22.7377 3.2835 20.1375 4.92898 21.7347C4.82665 18.183 1.62631 18.4972 0.641592 20.6473C-2.09763 26.6271 7.10091 30.7818 12.1682 26.2466C12.2229 29.0822 13.7827 31.5687 17.1051 31.9747C19.7968 32.3035 22.0266 29.3651 18.6176 27.1318C19.1902 29.6991 15.496 30.0145 15.4587 26.3486C15.4443 24.9315 16.1831 23.7034 17.2368 22.8011C17.7401 23.7409 18.3776 24.6703 19.1721 25.5792C24.0442 31.1535 34.2214 26.8969 31.3584 20.6472C30.3736 18.4972 27.1733 18.1828 27.0709 21.7346C28.7164 20.1374 30.6376 22.7376 27.9314 24.4385C25.7447 25.8135 22.6679 24.3686 21.4602 22.499C20.0743 20.3524 19.7912 18.2301 20.231 15.888L18.6871 15.0429L15.9948 19.3881L13.2555 14.9961V14.9959Z" fill="#F8F2ED"/>
</g>
<defs>
<clipPath id="clip0_288_2">
<rect width="32" height="32" fill=""/>
</clipPath>
</defs>
</svg>
