<svg width="64" height="64" viewBox="0 0 64 64" fill="none" xmlns="http://www.w3.org/2000/svg">
<path d="M13.5224 0.0045166C13.4939 0.0562613 13.4507 0.1125 13.4224 0.164517C13.314 0.363053 13.2086 0.564857 13.1024 0.764347C12.7132 1.49585 12.3317 2.22545 11.9627 2.96404C10.7501 5.38722 9.62948 7.85529 8.60308 10.363C7.35086 13.4255 6.2491 16.5372 5.46354 19.7217C4.83811 22.2332 4.38493 24.8335 4.50354 27.4605C3.79572 26.4628 3.10466 25.4343 2.50401 24.321C1.84427 23.073 1.23763 21.8077 1.0041 20.4016C0.785952 19.2147 0.896658 17.8676 1.10418 16.5421C1.33594 15.0991 1.71014 13.6825 2.14398 12.3027C2.50537 11.1545 2.92192 10.0403 3.36379 8.94314C3.49996 8.60544 3.61979 8.25494 3.76372 7.92322C3.80294 7.8324 3.84325 7.75369 3.88369 7.66341C3.84052 7.74253 3.7866 7.82341 3.74384 7.90334C3.57758 8.21327 3.42303 8.52523 3.26384 8.84319C2.74667 9.87604 2.26953 10.9546 1.82398 12.0628C1.28883 13.3929 0.815637 14.7761 0.464318 16.2622C0.138054 17.617 -0.10324 19.1107 0.0443688 20.6615C0.233373 22.4173 0.800386 24.0086 1.42405 25.4008C2.14194 27.032 2.99082 28.5267 3.86367 29.9602C4.61656 31.0694 5.36972 32.1866 6.12342 33.2996C6.72338 34.3988 7.46143 35.4367 8.32311 36.3993C10.2205 38.519 12.4875 40.291 14.6222 42.0185C16.6514 43.6866 18.6123 45.2996 19.8415 47.1377C20.4371 48.0143 20.8751 48.9421 21.1013 49.8774C21.3603 50.9006 21.3803 51.9958 21.2013 53.0769C21.0229 54.208 20.2319 55.3223 19.1616 56.0965C18.2461 56.7868 17.029 57.2839 15.7219 57.7162C15.7338 57.555 15.7417 57.4204 15.7417 57.2563C15.7417 53.6015 12.6968 50.6303 8.88264 50.5173C10.995 51.3993 12.1989 53.0276 11.5623 54.3367C10.8804 55.7385 8.38126 56.2182 5.98303 55.3965C4.57979 54.9159 3.50704 54.0962 3.00348 53.2169C2.10694 54.3487 1.56376 55.7326 1.56376 57.2563C1.56376 60.9824 4.74428 63.9954 8.66258 63.9954C9.30939 63.9954 11.0227 63.8305 12.1822 63.5953C13.7574 63.276 15.3255 62.8478 16.8215 62.2355C18.8447 61.4076 20.8741 60.5577 22.6207 59.136C24.2602 58.0167 25.6737 55.5196 25.9001 53.3368C26.0352 51.8473 25.9237 50.3337 25.4403 48.8775C24.9902 47.5545 24.2538 46.3442 23.3805 45.258C21.5772 43.0439 19.3073 41.3443 17.1013 39.7988C14.8003 38.1601 12.5099 36.6372 10.6823 34.8395C8.80856 32.9986 7.40274 30.8 6.92287 28.4204C6.35123 25.7003 6.61132 22.8137 7.08287 19.9216C7.60086 16.7848 8.46105 13.6406 9.46245 10.543C10.2787 8.01923 11.1813 5.52813 12.2022 3.04411C12.5124 2.28675 12.8324 1.53344 13.1621 0.784364C13.2522 0.580108 13.3494 0.368091 13.4419 0.16438C13.4664 0.111274 13.4979 0.057623 13.5224 0.0045166ZM50.4771 0.0045166C50.5016 0.057623 50.5329 0.111274 50.5574 0.164517C50.6497 0.368091 50.7472 0.580108 50.8375 0.784364C51.1684 1.5333 51.4674 2.28986 51.7775 3.04411C52.7982 5.52813 53.7209 8.01936 54.537 10.543C55.5384 13.6406 56.3787 16.7848 56.8965 19.9216C57.3682 22.8139 57.6482 25.7003 57.0767 28.4204C56.5967 30.8 55.171 32.9986 53.2972 34.8395C51.4697 36.6372 49.1992 38.1601 46.8981 39.7988C44.6921 41.3443 42.4223 43.0437 40.619 45.258C39.7458 46.3442 39.0095 47.5545 38.5593 48.8774C38.076 50.3337 37.9442 51.8473 38.0794 53.337C38.3059 55.5198 39.7192 58.0167 41.3588 59.136C43.1055 60.5577 45.1549 61.4075 47.1781 62.2355C48.674 62.8479 50.2222 63.2759 51.7974 63.5953C52.9569 63.8305 54.7102 63.9953 55.3569 63.9953C59.2752 63.9953 62.4358 60.9824 62.4358 57.2562C62.4358 55.7253 61.8966 54.3315 60.9961 53.197C60.5018 54.0821 59.4677 54.913 58.0564 55.3965C55.6582 56.2182 53.1592 55.7383 52.4773 54.3367C51.8414 53.0292 53.0117 51.4001 55.1169 50.5171C51.3107 50.6402 48.2379 53.6081 48.2379 57.2562C48.2379 57.4206 48.2477 57.555 48.2575 57.7162C46.9505 57.2839 45.7735 56.7868 44.858 56.0965C43.7877 55.3222 42.9767 54.2082 42.7983 53.0769C42.6192 51.9958 42.6192 50.9007 42.8786 49.8774C43.1047 48.9422 43.563 48.0143 44.1586 47.1377C45.3877 45.2996 47.3486 43.6867 49.3778 42.0185C51.5126 40.291 53.7595 38.5192 55.6568 36.3993C56.5187 35.4367 57.2766 34.3989 57.8766 33.2998C58.6304 32.1866 59.3836 31.0696 60.1362 29.9602C61.0092 28.5269 61.858 27.032 62.5759 25.4008C63.1996 24.0086 63.7667 22.4173 63.9557 20.6615C64.1032 19.1106 63.8615 17.6169 63.5358 16.2622C63.1845 14.7761 62.7111 13.393 62.1759 12.0627C61.7304 10.9546 61.2534 9.87604 60.7363 8.84319C60.577 8.52523 60.4225 8.21327 60.2563 7.90334C60.2131 7.82341 60.16 7.74266 60.1163 7.66341C60.1565 7.75369 60.1772 7.83226 60.2162 7.92336C60.3602 8.25494 60.5001 8.60544 60.6362 8.94328C61.0781 10.0403 61.4947 11.1547 61.856 12.3027C62.29 13.6827 62.664 15.0991 62.8958 16.5421C63.1033 17.8676 63.2142 19.2147 62.9957 20.4016C62.7622 21.8077 62.1558 23.073 61.4961 24.321C60.8953 25.4343 60.2043 26.4629 59.4964 27.4605C59.615 24.8337 59.1619 22.2332 58.5364 19.7217C57.7507 16.5372 56.6292 13.4253 55.3769 10.363C54.3566 7.86712 53.2536 5.39645 52.0374 2.96404C51.6681 2.22559 51.2667 1.49585 50.8775 0.764347C50.7713 0.564857 50.6861 0.363053 50.5777 0.164517C50.5491 0.1125 50.5059 0.0562613 50.4776 0.0045166H50.4771ZM31.9997 4.36387C22.291 4.36387 14.4222 12.2513 14.4222 21.9613C14.4222 30.8163 25.5442 37.1131 29.4802 45.578C30.6672 48.1309 31.459 48.6885 31.9997 53.6368C32.5404 48.6885 33.3323 48.1309 34.5193 45.578C38.4553 37.1131 49.5773 30.8163 49.5773 21.9613C49.5773 12.2513 41.7084 4.36387 31.9997 4.36387ZM31.9997 15.4223C38.2411 15.4223 43.2982 20.4785 43.2982 26.7207C43.2982 32.9629 38.2411 38.019 31.9997 38.019C25.7584 38.019 20.7014 32.9628 20.7014 26.7207C20.7014 20.4787 25.7585 15.4223 31.9997 15.4223ZM31.9997 22.2413C28.2238 22.2413 25.1607 25.222 25.1607 28.9004C25.1607 32.5788 28.2238 35.5594 31.9997 35.5594C35.7756 35.5594 38.8387 32.5786 38.8387 28.9004C38.8387 25.2222 35.7756 22.2413 31.9997 22.2413Z" fill="#F8F2ED"/>
</svg>
